<svg id="Layer_3" enable-background="new 0 0 64 64" height="512" viewBox="0 0 64 64" width="512" xmlns="http://www.w3.org/2000/svg"><g><path d="m56 22.255v-16.255c0-.553-.448-1-1-1h-10c-.552 0-1 .447-1 1v5.455l-11.331-10.198c-.183-.165-.421-.257-.669-.257-.384 0-.384 0-15.669 13.757l-15 13.5c-.204.183-.324.442-.331.717-.007.274.099.539.292.733l3 3c.375.373.976.392 1.372.04l2.336-2.076v31.329c0 .553.448 1 1 1h44v-.045c.155.015.307.045.464.045 2.501 0 4.536-2.034 4.536-4.535 0-1.211-.472-2.351-1.329-3.207l-.671-.672v-23.915l2.335 2.076c.19.169.428.253.665.253.256 0 .513-.099.707-.293l3-3c.194-.194.3-.459.292-.733-.007-.274-.126-.533-.331-.717zm-10-15.255h8v13.455l-8-7.2zm7.464 54c-.678 0-1.314-.264-1.793-.742l-8.257-8.258 3.586-3.586 8.257 8.258c.479.479.743 1.116.743 1.793 0 1.397-1.138 2.535-2.536 2.535zm-21.464-12c-6.617 0-12-5.383-12-12s5.383-12 12-12 12 5.383 12 12-5.383 12-12 12zm10.65-2.936 1.936 1.936-1.586 1.586-1.936-1.936c.57-.486 1.1-1.016 1.586-1.586zm11.35 6.522-6.293-6.293c-.375-.375-1.039-.375-1.414 0l-.293.293-2.156-2.156c1.358-2.156 2.156-4.699 2.156-7.43 0-7.72-6.28-14-14-14s-14 6.28-14 14 6.28 14 14 14c2.731 0 5.274-.798 7.43-2.156l2.156 2.156-.293.293c-.391.391-.391 1.023 0 1.414l8.293 8.293h-39.586v-32.107l22-19.555 22 19.555zm4.959-21.96-26.294-23.373c-.379-.338-.95-.338-1.329 0l-26.295 23.373-1.588-1.588c4.259-3.833 24.591-22.132 28.547-25.692l28.547 25.692z"/><path d="m32 27c-5.514 0-10 4.486-10 10s4.486 10 10 10 10-4.486 10-10-4.486-10-10-10zm0 18c-4.411 0-8-3.589-8-8s3.589-8 8-8 8 3.589 8 8-3.589 8-8 8z"/><path d="m32 34c.551 0 1 .448 1 1h2c0-1.302-.839-2.402-2-2.816v-1.184h-2v1.184c-1.161.414-2 1.514-2 2.816 0 1.654 1.346 3 3 3 .551 0 1 .448 1 1s-.449 1-1 1-1-.448-1-1h-2c0 1.302.839 2.402 2 2.816v1.184h2v-1.184c1.161-.414 2-1.514 2-2.816 0-1.654-1.346-3-3-3-.551 0-1-.448-1-1s.449-1 1-1z"/></g></svg>