<svg width="62" height="62" viewBox="0 0 62 62" fill="none" xmlns="http://www.w3.org/2000/svg">
<g clip-path="url(#clip0_3041_255848)">
<rect width="62" height="62" rx="13" fill="#070707"/>
<path d="M31.0012 38.3119C35.0415 38.3119 38.3168 35.0366 38.3168 30.9963C38.3168 26.956 35.0415 23.6807 31.0012 23.6807C26.9609 23.6807 23.6855 26.956 23.6855 30.9963C23.6855 35.0366 26.9609 38.3119 31.0012 38.3119Z" stroke="white" stroke-width="2.4" stroke-linecap="round" stroke-linejoin="round"/>
<path d="M40.7123 45.6269C37.4534 47.7907 33.5652 48.8041 29.6647 48.5064C25.7643 48.2087 22.0749 46.617 19.1821 43.9838C16.2893 41.3505 14.3587 37.8267 13.6967 33.9713C13.0346 30.1159 13.6791 26.1498 15.5277 22.7024C17.3764 19.255 20.3234 16.5237 23.9012 14.9419C27.4789 13.3601 31.4824 13.0183 35.2765 13.971C39.0705 14.9236 42.4378 17.1159 44.844 20.2002C47.2501 23.2844 48.5574 27.0839 48.5583 30.9957C48.5583 35.0376 47.0952 38.3113 43.4374 38.3113C39.7796 38.3113 38.3165 35.0376 38.3165 30.9957V23.6801" stroke="white" stroke-width="2.4" stroke-linecap="round" stroke-linejoin="round"/>
</g>
<defs>
<clipPath id="clip0_3041_255848">
<rect width="62" height="62" fill="white"/>
</clipPath>
</defs>
</svg>
