<?xml version="1.0" encoding="UTF-8"?>
<svg id="Layer_1" data-name="Layer 1" xmlns="http://www.w3.org/2000/svg" viewBox="0 0 28 28">
  <defs>
    <style>
      .cls-1 {
        fill: #fff;
        stroke-width: 0px;
      }
    </style>
  </defs>
  <path class="cls-1" d="M21.61,14.14l-3.43-1.92,2.22-9.56c.14-.64-.27-1.26-.91-1.4-.35-.07-.71.01-.99.24L6.21,11.93c-.49.43-.55,1.17-.12,1.66.1.11.22.21.35.28l4.16,2.1-2.71,9.32c-.17.63.2,1.27.83,1.44.37.1.77.01,1.06-.23l12.02-10.44c.49-.43.53-1.17.1-1.66-.09-.1-.19-.18-.3-.24ZM11.25,22.11l1.87-6.43c.16-.54-.09-1.12-.6-1.37l-3.45-1.74,8.25-6.99-1.62,6.98c-.12.51.11,1.03.57,1.29l2.74,1.53-7.76,6.74Z"/>
</svg>