<?xml version="1.0" encoding="UTF-8"?>
<svg id="Layer_1" data-name="Layer 1" xmlns="http://www.w3.org/2000/svg" viewBox="0 0 28 28">
  <defs>
    <style>
      .cls-1 {
        fill: #fff;
        stroke-width: 0px;
      }
    </style>
  </defs>
  <path class="cls-1" d="M18.65.9c-.19.02-.36.12-.48.26L6.17,15.72c-.26.31-.22.77.09,1.02.13.11.29.17.46.17h5.09c.4,0,.73-.32.74-.72,0-.4-.32-.73-.72-.74,0,0-.01,0-.02,0h-3.56l9.09-11.03-1.31,5.76c-.09.39.15.78.55.88s.78-.15.88-.55h0l1.97-8.73c.09-.39-.15-.78-.55-.87-.08-.02-.16-.02-.24-.01ZM16.12,12.18c-.4.02-.71.36-.69.76s.36.71.76.69h3.43l-9.16,9.96,1.34-4.67c.13-.38-.08-.79-.46-.92-.38-.13-.79.08-.92.46,0,.02-.01.04-.02.06l-2.19,7.64c-.11.39.1.79.49.91.27.08.56,0,.75-.21l12.37-13.46c.27-.3.25-.76-.05-1.03-.13-.12-.3-.19-.48-.19h-5.09s-.05,0-.07,0Z"/>
</svg>