<svg width="32" height="33" viewBox="0 0 32 33" fill="none" xmlns="http://www.w3.org/2000/svg">
<path d="M10.9092 15.2478H8.00011C7.26375 15.2478 6.6668 15.8422 6.66679 16.5786C6.66673 18.7753 6.66667 23.2138 6.66681 26.2027C6.66697 29.5531 11.8482 30.3109 16 30.3109C20.1519 30.3109 25.3333 29.5531 25.3333 26.2027C25.3333 23.2139 25.3333 18.7753 25.3333 16.5786C25.3333 15.8422 24.7364 15.2478 24 15.2478H21.0909M10.9092 15.2478C10.9092 15.2478 10.9092 11.8244 10.9092 9.77033C10.9091 7.30515 12.9452 4.97754 16 4.97754C19.0549 4.97754 21.0909 7.30515 21.0909 9.77033C21.0909 11.8244 21.0909 15.2478 21.0909 15.2478M10.9092 15.2478H21.0909" stroke="white" stroke-width="2.66667" stroke-linecap="round" stroke-linejoin="round"/>
<path fill-rule="evenodd" clip-rule="evenodd" d="M17.3333 23.1348V24.9774C17.3333 25.7138 16.7364 26.3107 16 26.3107C15.2636 26.3107 14.6667 25.7138 14.6667 24.9774V23.1348C14.2575 22.7686 14 22.2363 14 21.644C14 20.5395 14.8955 19.644 16 19.644C17.1045 19.644 18 20.5395 18 21.644C18 22.2363 17.7425 22.7686 17.3333 23.1348Z" fill="white"/>
</svg>
